<svg width="348" height="100" viewBox="0 0 348 100" fill="none" xmlns="http://www.w3.org/2000/svg">
    <rect x="11.123" y="11.4121" width="328.333" height="77.6701" rx="21.1828" fill="#E1EFA4" />
    <rect x="11.123" y="11.4121" width="328.333" height="77.6701" rx="21.1828" stroke="#FCFCFC"
        stroke-opacity="0.19" stroke-width="21.1828" />
    <g clip-path="url(#clip0_3695_3696)">
        <path
            d="M145.637 56.2268C142.336 69.4661 128.927 77.5232 115.687 74.2218C102.451 70.9211 94.394 57.5112 97.6962 44.2727C100.995 31.032 114.405 22.974 127.641 26.2747C140.881 29.5754 148.938 42.9869 145.637 56.2268Z"
            fill="#F7931A" />
        <path
            d="M113.538 54.4105C113.403 54.7442 113.063 55.2446 112.295 55.0546C112.322 55.094 110.324 54.5626 110.324 54.5626L108.978 57.6664L112.507 58.5461C113.163 58.7106 113.806 58.8828 114.44 59.045L113.317 63.5505L116.026 64.2262L117.137 59.7686C117.877 59.9694 118.595 60.1547 119.298 60.3293L118.19 64.766L120.902 65.4418L122.024 60.9448C126.648 61.8197 130.125 61.4668 131.588 57.2849C132.767 53.9178 131.529 51.9755 129.097 50.7089C130.868 50.3004 132.203 49.135 132.559 46.7278C133.051 43.4395 130.547 41.6717 127.123 40.4924L128.234 36.0379L125.522 35.3621L124.441 39.6993C123.728 39.5216 122.996 39.354 122.269 39.188L123.358 34.8222L120.648 34.1465L119.537 38.5995C118.946 38.4651 118.367 38.3322 117.805 38.1924L117.808 38.1785L114.069 37.2448L113.347 40.1409C113.347 40.1409 115.359 40.602 115.317 40.6305C116.415 40.9047 116.613 41.6314 116.58 42.2075L113.538 54.4105ZM126.364 55.4152C125.526 58.7823 119.856 56.9621 118.018 56.5057L119.507 50.5368C121.345 50.9954 127.239 51.9036 126.364 55.4152ZM127.202 46.6792C126.438 49.7421 121.719 48.186 120.188 47.8045L121.538 42.3907C123.069 42.7722 127.998 43.4843 127.202 46.6792Z"
            fill="white" />
    </g>
    <path
        d="M184.683 49.8266C185.655 50.0078 186.479 50.5021 187.154 51.3094C187.83 52.1167 188.167 53.0558 188.167 54.1267C188.167 54.9999 187.945 55.7907 187.5 56.4991C187.072 57.1911 186.437 57.743 185.597 58.1549C184.757 58.5503 183.752 58.748 182.582 58.748H176.602V41.4735H182.409C184.156 41.4735 185.482 41.8772 186.388 42.6845C187.311 43.4918 187.772 44.5379 187.772 45.823C187.772 46.8939 187.484 47.7671 186.907 48.4426C186.33 49.1017 185.589 49.563 184.683 49.8266ZM178.331 49.1099H182.36C183.53 49.1099 184.427 48.838 185.053 48.2944C185.696 47.7342 186.017 46.9681 186.017 45.996C186.017 45.0404 185.696 44.2908 185.053 43.7471C184.427 43.2034 183.505 42.9316 182.286 42.9316H178.331V49.1099ZM182.459 57.29C183.711 57.29 184.683 56.9934 185.375 56.4003C186.083 55.8072 186.437 54.9916 186.437 53.9537C186.437 52.9157 186.067 52.092 185.325 51.4824C184.6 50.8563 183.62 50.5433 182.384 50.5433H178.331V57.29H182.459ZM191.718 42.7092C191.372 42.7092 191.076 42.5856 190.828 42.3385C190.581 42.0913 190.458 41.7865 190.458 41.4241C190.458 41.0616 190.581 40.7651 190.828 40.5344C191.076 40.2873 191.372 40.1637 191.718 40.1637C192.064 40.1637 192.361 40.2873 192.608 40.5344C192.855 40.7651 192.979 41.0616 192.979 41.4241C192.979 41.7865 192.855 42.0913 192.608 42.3385C192.361 42.5856 192.064 42.7092 191.718 42.7092ZM192.583 45.2546V58.748H190.853V45.2546H192.583ZM198.255 46.7127V55.0905C198.255 55.9143 198.412 56.4827 198.725 56.7957C199.038 57.1087 199.59 57.2653 200.381 57.2653H201.962V58.748H200.109C198.889 58.748 197.983 58.468 197.39 57.9078C196.797 57.3312 196.501 56.3921 196.501 55.0905V46.7127H194.622V45.2546H196.501V41.8689H198.255V45.2546H201.962V46.7127H198.255ZM203.53 52.0013C203.53 50.6009 203.81 49.3817 204.37 48.3438C204.931 47.2893 205.705 46.4821 206.693 45.9219C207.682 45.3452 208.81 45.0569 210.079 45.0569C211.743 45.0569 213.111 45.4688 214.182 46.2926C215.269 47.1164 215.969 48.2367 216.282 49.6536H214.429C214.198 48.6815 213.695 47.9237 212.921 47.38C212.163 46.8198 211.216 46.5397 210.079 46.5397C209.173 46.5397 208.357 46.7457 207.632 47.1575C206.908 47.5694 206.331 48.1873 205.903 49.011C205.491 49.8183 205.285 50.8151 205.285 52.0013C205.285 53.1876 205.491 54.1926 205.903 55.0164C206.331 55.8401 206.908 56.458 207.632 56.8698C208.357 57.2817 209.173 57.4877 210.079 57.4877C211.216 57.4877 212.163 57.2158 212.921 56.6721C213.695 56.112 214.198 55.3376 214.429 54.3491H216.282C215.969 55.733 215.269 56.8451 214.182 57.6854C213.094 58.5256 211.727 58.9458 210.079 58.9458C208.81 58.9458 207.682 58.6657 206.693 58.1055C205.705 57.5289 204.931 56.7216 204.37 55.6836C203.81 54.6292 203.53 53.4018 203.53 52.0013ZM224.889 58.9458C223.621 58.9458 222.476 58.6657 221.454 58.1055C220.449 57.5289 219.65 56.7216 219.057 55.6836C218.48 54.6292 218.192 53.4018 218.192 52.0013C218.192 50.6009 218.489 49.3817 219.082 48.3438C219.675 47.2893 220.482 46.4821 221.504 45.9219C222.525 45.3452 223.67 45.0569 224.939 45.0569C226.207 45.0569 227.352 45.3452 228.374 45.9219C229.412 46.4821 230.219 47.2893 230.796 48.3438C231.389 49.3817 231.685 50.6009 231.685 52.0013C231.685 53.3853 231.389 54.6045 230.796 55.6589C230.203 56.7133 229.387 57.5289 228.349 58.1055C227.311 58.6657 226.158 58.9458 224.889 58.9458ZM224.889 57.4382C225.779 57.4382 226.603 57.2405 227.361 56.8451C228.118 56.4332 228.728 55.8236 229.189 55.0164C229.667 54.1926 229.906 53.1876 229.906 52.0013C229.906 50.8151 229.675 49.8183 229.214 49.011C228.753 48.1873 228.143 47.5777 227.385 47.1823C226.627 46.7704 225.804 46.5644 224.914 46.5644C224.024 46.5644 223.201 46.7704 222.443 47.1823C221.685 47.5777 221.075 48.1873 220.614 49.011C220.169 49.8183 219.947 50.8151 219.947 52.0013C219.947 53.1876 220.169 54.1926 220.614 55.0164C221.075 55.8236 221.677 56.4332 222.418 56.8451C223.176 57.2405 224 57.4382 224.889 57.4382ZM235.21 42.7092C234.864 42.7092 234.567 42.5856 234.32 42.3385C234.073 42.0913 233.949 41.7865 233.949 41.4241C233.949 41.0616 234.073 40.7651 234.32 40.5344C234.567 40.2873 234.864 40.1637 235.21 40.1637C235.556 40.1637 235.852 40.2873 236.099 40.5344C236.346 40.7651 236.47 41.0616 236.47 41.4241C236.47 41.7865 236.346 42.0913 236.099 42.3385C235.852 42.5856 235.556 42.7092 235.21 42.7092ZM236.075 45.2546V58.748H234.345V45.2546H236.075ZM245.824 45.0075C247.439 45.0075 248.757 45.51 249.778 46.515C250.8 47.5035 251.311 48.9451 251.311 50.8398V58.748H249.605V51.0375C249.605 49.5712 249.235 48.4509 248.493 47.6765C247.768 46.9022 246.772 46.515 245.503 46.515C244.201 46.515 243.163 46.9269 242.389 47.7507C241.615 48.5744 241.228 49.7854 241.228 51.3835V58.748H239.498V45.2546H241.228V47.553C241.656 46.7292 242.274 46.1031 243.081 45.6748C243.888 45.2299 244.803 45.0075 245.824 45.0075Z"
        fill="black" />
    <defs>
        <clipPath id="clip0_3695_3696">
            <rect width="49.4264" height="49.4264" fill="white"
                transform="translate(96.9546 25.5332)" />
        </clipPath>
    </defs>
</svg>