<svg width="25" height="25" viewBox="0 0 25 25" fill="none" xmlns="http://www.w3.org/2000/svg">
    <rect x="0.958984" y="0.417969" width="24" height="24" rx="12" fill="#0052B4" />
    <g opacity="0.08">
        <rect x="1.20898" y="0.667969" width="23.5" height="23.5" rx="11.75" stroke="white"
            stroke-width="0.5" />
    </g>
    <g clip-path="url(#clip0_4061_5397)">
        <path
            d="M11.293 9.41862H14.1263C14.9547 9.41862 15.6263 10.0902 15.6263 10.9186C15.6263 11.747 14.9547 12.4186 14.1263 12.4186H11.293H14.4596C15.2881 12.4186 15.9596 13.0902 15.9596 13.9186C15.9596 14.747 15.2881 15.4186 14.4596 15.4186H11.293M11.293 9.41862H10.293M11.293 9.41862V15.4186M11.293 15.4186H10.293M11.6263 8.41862V9.41862M11.6263 15.4186V16.4186M13.6263 8.41862V9.41862M13.6263 15.4186V16.4186M19.6263 12.4186C19.6263 16.1005 16.6415 19.0853 12.9596 19.0853C9.27774 19.0853 6.29297 16.1005 6.29297 12.4186C6.29297 8.73672 9.27774 5.75195 12.9596 5.75195C16.6415 5.75195 19.6263 8.73672 19.6263 12.4186Z"
            stroke="white" stroke-linecap="round" stroke-linejoin="round" />
    </g>
    <defs>
        <clipPath id="clip0_4061_5397">
            <rect width="16" height="16" fill="white" transform="translate(4.95898 4.41797)" />
        </clipPath>
    </defs>
</svg>
    