<svg width="45" height="45" viewBox="0 0 45 45" fill="none" xmlns="http://www.w3.org/2000/svg">
    <rect x="0.875" y="0.5" width="44" height="44" rx="6" fill="#925821" />
    <path opacity="0.4"
        d="M36.1677 15.046V23.7127H9.54102V15.046C9.54102 11.806 12.181 9.16602 15.421 9.16602H30.2877C33.5277 9.16602 36.1677 11.806 36.1677 15.046Z"
        fill="#EBF4C2" />
    <path
        d="M9.54102 23.7266V23.9932C9.54102 27.2466 12.181 29.8732 15.421 29.8732H20.541C21.2743 29.8732 21.8743 30.4732 21.8743 31.2066V32.4999C21.8743 33.2332 21.2743 33.8332 20.541 33.8332H17.3143C16.7677 33.8332 16.3143 34.2866 16.3143 34.8332C16.3143 35.3799 16.7543 35.8332 17.3143 35.8332H28.4477C28.9944 35.8332 29.4477 35.3799 29.4477 34.8332C29.4477 34.2866 28.9944 33.8332 28.4477 33.8332H25.221C24.4877 33.8332 23.8877 33.2332 23.8877 32.4999V31.2066C23.8877 30.4732 24.4877 29.8732 25.221 29.8732H30.301C33.5543 29.8732 36.181 27.2332 36.181 23.9932V23.7266H9.54102Z"
        fill="white" />
</svg>