<svg width="25" height="24" viewBox="0 0 25 24" fill="none" xmlns="http://www.w3.org/2000/svg">
    <path opacity="0.4"
        d="M20.1251 5.84965C20.1251 7.20827 19.0237 8.30965 17.6651 8.30965C16.3065 8.30965 15.2051 7.20827 15.2051 5.84965C15.2051 4.49103 16.3065 3.38965 17.6651 3.38965C19.0237 3.38965 20.1251 4.49103 20.1251 5.84965Z"
        fill="black" stroke="black" />
    <path
        d="M9.045 5.84965C9.045 7.20827 7.94362 8.30965 6.585 8.30965C5.22638 8.30965 4.125 7.20827 4.125 5.84965C4.125 4.49103 5.22638 3.38965 6.585 3.38965C7.94362 3.38965 9.045 4.49103 9.045 5.84965Z"
        fill="black" stroke="black" />
    <path
        d="M17.6651 21.1104C19.2998 21.1104 20.6251 19.7852 20.6251 18.1504C20.6251 16.5157 19.2998 15.1904 17.6651 15.1904C16.0303 15.1904 14.7051 16.5157 14.7051 18.1504C14.7051 19.7852 16.0303 21.1104 17.6651 21.1104Z"
        fill="#292D32" />
    <path opacity="0.4"
        d="M6.585 21.1104C8.21976 21.1104 9.545 19.7852 9.545 18.1504C9.545 16.5157 8.21976 15.1904 6.585 15.1904C4.95024 15.1904 3.625 16.5157 3.625 18.1504C3.625 19.7852 4.95024 21.1104 6.585 21.1104Z"
        fill="#292D32" />
</svg>