<svg width="20" height="21" viewBox="0 0 20 21" fill="none" xmlns="http://www.w3.org/2000/svg">
<path opacity="0.4" d="M10.9756 2.6665C14.7989 2.66654 17.8337 5.54927 17.834 9.03271C17.834 11.1038 16.7688 12.9498 15.1055 14.1157L14.8594 14.2876L14.8955 14.5864L15.2207 17.2192C15.2541 17.504 14.9545 17.685 14.7266 17.5474L14.7227 17.5454L11.2305 15.4702L11.1133 15.3999H10.9756C10.9013 15.3999 10.8274 15.397 10.7539 15.395C11.1226 14.7367 11.3339 13.9871 11.334 13.1919C11.334 10.5179 9.02789 8.40794 6.25098 8.40771C5.49166 8.40771 4.77188 8.56519 4.12207 8.84912C4.22674 5.44857 7.21966 2.6665 10.9756 2.6665Z" fill="#292D32" stroke="#1B1B1B"/>
<path d="M10.8327 13.1915C10.8327 14.1832 10.466 15.0999 9.84935 15.8249C9.02435 16.8249 7.71601 17.4665 6.24935 17.4665L4.07435 18.7582C3.70768 18.9832 3.24101 18.6748 3.29101 18.2498L3.49935 16.6082C2.38268 15.8332 1.66602 14.5915 1.66602 13.1915C1.66602 11.7248 2.44935 10.4332 3.64935 9.66651C4.39102 9.18318 5.28268 8.9082 6.24935 8.9082C8.78268 8.9082 10.8327 10.8248 10.8327 13.1915Z" fill="#292D32"/>
</svg>
