<svg width="1435" height="768" viewBox="0 0 1435 768" fill="none" xmlns="http://www.w3.org/2000/svg">
<g opacity="0.04">
<mask id="mask0_6133_31675" style="mask-type:alpha" maskUnits="userSpaceOnUse" x="-1" y="0" width="1442" height="767">
<rect x="-0.510254" width="1441" height="767" fill="url(#paint0_linear_6133_31675)"/>
</mask>
<g mask="url(#mask0_6133_31675)">
<rect x="0.489746" width="96" height="96" stroke="#E5E5E5" stroke-opacity="0.898039" stroke-width="0.979592"/>
<rect x="96.4897" width="96" height="96" stroke="#E5E5E5" stroke-opacity="0.898039" stroke-width="0.979592"/>
<rect x="192.49" width="96" height="96" fill="#FAFAFA" fill-opacity="0.898039"/>
<rect x="288.49" width="96" height="96" stroke="#E5E5E5" stroke-opacity="0.898039" stroke-width="0.979592"/>
<rect x="384.49" width="96" height="96" stroke="#E5E5E5" stroke-opacity="0.898039" stroke-width="0.979592"/>
<rect x="480.49" width="96" height="96" stroke="#E5E5E5" stroke-opacity="0.898039" stroke-width="0.979592"/>
<rect x="576.49" width="96" height="96" stroke="#E5E5E5" stroke-opacity="0.898039" stroke-width="0.979592"/>
<rect x="672.49" width="96" height="96" stroke="#E5E5E5" stroke-opacity="0.898039" stroke-width="0.979592"/>
<rect x="768.49" width="96" height="96" stroke="#E5E5E5" stroke-opacity="0.898039" stroke-width="0.979592"/>
<rect x="864.49" width="96" height="96" stroke="#E5E5E5" stroke-opacity="0.898039" stroke-width="0.979592"/>
<rect x="960.49" width="96" height="96" stroke="#E5E5E5" stroke-opacity="0.898039" stroke-width="0.979592"/>
<rect x="1056.49" width="96" height="96" stroke="#E5E5E5" stroke-opacity="0.898039" stroke-width="0.979592"/>
<rect x="1152.49" width="96" height="96" stroke="#E5E5E5" stroke-opacity="0.898039" stroke-width="0.979592"/>
<rect x="1248.49" width="96" height="96" fill="#FAFAFA" fill-opacity="0.898039"/>
<rect x="1344.49" width="96" height="96" stroke="#E5E5E5" stroke-opacity="0.898039" stroke-width="0.979592"/>
<rect x="0.489746" y="96" width="96" height="96" stroke="#E5E5E5" stroke-opacity="0.898039" stroke-width="0.979592"/>
<rect x="96.4897" y="96" width="96" height="96" stroke="#E5E5E5" stroke-opacity="0.898039" stroke-width="0.979592"/>
<rect x="192.49" y="96" width="96" height="96" stroke="#E5E5E5" stroke-opacity="0.898039" stroke-width="0.979592"/>
<rect x="288.49" y="96" width="96" height="96" stroke="#E5E5E5" stroke-opacity="0.898039" stroke-width="0.979592"/>
<rect x="384.49" y="96" width="96" height="96" stroke="#E5E5E5" stroke-opacity="0.898039" stroke-width="0.979592"/>
<rect x="480.49" y="96" width="96" height="96" stroke="#E5E5E5" stroke-opacity="0.898039" stroke-width="0.979592"/>
<rect x="576.49" y="96" width="96" height="96" stroke="#E5E5E5" stroke-opacity="0.898039" stroke-width="0.979592"/>
<rect x="672.49" y="96" width="96" height="96" stroke="#E5E5E5" stroke-opacity="0.898039" stroke-width="0.979592"/>
<rect x="768.49" y="96" width="96" height="96" fill="#FAFAFA" fill-opacity="0.898039"/>
<rect x="864.49" y="96" width="96" height="96" stroke="#E5E5E5" stroke-opacity="0.898039" stroke-width="0.979592"/>
<rect x="960.49" y="96" width="96" height="96" stroke="#E5E5E5" stroke-opacity="0.898039" stroke-width="0.979592"/>
<rect x="1056.49" y="96" width="96" height="96" stroke="#E5E5E5" stroke-opacity="0.898039" stroke-width="0.979592"/>
<rect x="1152.49" y="96" width="96" height="96" stroke="#E5E5E5" stroke-opacity="0.898039" stroke-width="0.979592"/>
<rect x="1248.49" y="96" width="96" height="96" stroke="#E5E5E5" stroke-opacity="0.898039" stroke-width="0.979592"/>
<rect x="1344.49" y="96" width="96" height="96" stroke="#E5E5E5" stroke-opacity="0.898039" stroke-width="0.979592"/>
<path d="M96.7017 83.4297C98.1809 89.1641 102.659 93.6418 108.393 95.1211L109.861 95.5L108.393 95.8789C102.659 97.3582 98.1809 101.836 96.7017 107.57L96.3228 109.038L95.9438 107.57C94.4646 101.836 89.9868 97.3582 84.2524 95.8789L82.7837 95.5L84.2524 95.1211C89.9868 93.6418 94.4646 89.1641 95.9438 83.4297L96.3228 81.9609L96.7017 83.4297Z" fill="white" stroke="#E5E5E5" stroke-width="0.98"/>
<rect x="0.489746" y="192" width="96" height="96" fill="#FAFAFA"/>
<rect x="96.4897" y="192" width="96" height="96" stroke="#E5E5E5" stroke-opacity="0.898039" stroke-width="0.979592"/>
<rect x="192.49" y="192" width="96" height="96" stroke="#E5E5E5" stroke-opacity="0.898039" stroke-width="0.979592"/>
<rect x="288.49" y="192" width="96" height="96" stroke="#E5E5E5" stroke-opacity="0.898039" stroke-width="0.979592"/>
<rect x="384.49" y="192" width="96" height="96" stroke="#E5E5E5" stroke-opacity="0.898039" stroke-width="0.979592"/>
<rect x="480.49" y="192" width="96" height="96" stroke="#E5E5E5" stroke-opacity="0.898039" stroke-width="0.979592"/>
<rect x="576.49" y="192" width="96" height="96" stroke="#E5E5E5" stroke-opacity="0.898039" stroke-width="0.979592"/>
<rect x="672.49" y="192" width="96" height="96" stroke="#E5E5E5" stroke-opacity="0.898039" stroke-width="0.979592"/>
<rect x="768.49" y="192" width="96" height="96" stroke="#E5E5E5" stroke-opacity="0.898039" stroke-width="0.979592"/>
<rect x="864.49" y="192" width="96" height="96" stroke="#E5E5E5" stroke-opacity="0.898039" stroke-width="0.979592"/>
<rect x="960.49" y="192" width="96" height="96" stroke="#E5E5E5" stroke-opacity="0.898039" stroke-width="0.979592"/>
<rect x="1056.49" y="192" width="96" height="96" stroke="#E5E5E5" stroke-opacity="0.898039" stroke-width="0.979592"/>
<rect x="1152.49" y="192" width="96" height="96" stroke="#E5E5E5" stroke-opacity="0.898039" stroke-width="0.979592"/>
<rect x="1248.49" y="192" width="96" height="96" stroke="#E5E5E5" stroke-opacity="0.898039" stroke-width="0.979592"/>
<rect x="1344.49" y="192" width="96" height="96" stroke="#E5E5E5" stroke-opacity="0.898039" stroke-width="0.979592"/>
<rect x="0.489746" y="288" width="96" height="96" stroke="#E5E5E5" stroke-opacity="0.898039" stroke-width="0.979592"/>
<rect x="96.4897" y="288" width="96" height="96" stroke="#E5E5E5" stroke-opacity="0.898039" stroke-width="0.979592"/>
<rect x="192.49" y="288" width="96" height="96" stroke="#E5E5E5" stroke-opacity="0.898039" stroke-width="0.979592"/>
<rect x="288.49" y="288" width="96" height="96" stroke="#E5E5E5" stroke-opacity="0.898039" stroke-width="0.979592"/>
<rect x="384.49" y="288" width="96" height="96" stroke="#E5E5E5" stroke-opacity="0.898039" stroke-width="0.979592"/>
<rect x="480.49" y="288" width="96" height="96" stroke="#E5E5E5" stroke-opacity="0.898039" stroke-width="0.979592"/>
<rect x="576.49" y="288" width="96" height="96" stroke="#E5E5E5" stroke-opacity="0.898039" stroke-width="0.979592"/>
<rect x="672.49" y="288" width="96" height="96" stroke="#E5E5E5" stroke-opacity="0.898039" stroke-width="0.979592"/>
<rect x="768.49" y="288" width="96" height="96" stroke="#E5E5E5" stroke-opacity="0.898039" stroke-width="0.979592"/>
<rect x="864.49" y="288" width="96" height="96" stroke="#E5E5E5" stroke-opacity="0.898039" stroke-width="0.979592"/>
<rect x="960.49" y="288" width="96" height="96" stroke="#E5E5E5" stroke-opacity="0.898039" stroke-width="0.979592"/>
<rect x="1056.49" y="288" width="96" height="96" stroke="#E5E5E5" stroke-opacity="0.898039" stroke-width="0.979592"/>
<rect x="1152.49" y="288" width="96" height="96" stroke="#E5E5E5" stroke-opacity="0.898039" stroke-width="0.979592"/>
<rect x="1248.49" y="288" width="96" height="96" stroke="#E5E5E5" stroke-opacity="0.898039" stroke-width="0.979592"/>
<rect x="1344.49" y="288" width="96" height="96" stroke="#E5E5E5" stroke-opacity="0.898039" stroke-width="0.979592"/>
<rect x="0.489746" y="384" width="96" height="96" stroke="#E5E5E5" stroke-opacity="0.898039" stroke-width="0.979592"/>
<rect x="96.4897" y="384" width="96" height="96" stroke="#E5E5E5" stroke-opacity="0.898039" stroke-width="0.979592"/>
<rect x="192.49" y="384" width="96" height="96" stroke="#E5E5E5" stroke-opacity="0.898039" stroke-width="0.979592"/>
<rect x="288.49" y="384" width="96" height="96" stroke="#E5E5E5" stroke-opacity="0.898039" stroke-width="0.979592"/>
<rect x="384.49" y="384" width="96" height="96" stroke="#E5E5E5" stroke-opacity="0.898039" stroke-width="0.979592"/>
<rect x="480.49" y="384" width="96" height="96" stroke="#E5E5E5" stroke-opacity="0.898039" stroke-width="0.979592"/>
<rect x="576.49" y="384" width="96" height="96" stroke="#E5E5E5" stroke-opacity="0.898039" stroke-width="0.979592"/>
<rect x="672.49" y="384" width="96" height="96" stroke="#E5E5E5" stroke-opacity="0.898039" stroke-width="0.979592"/>
<rect x="768.49" y="384" width="96" height="96" stroke="#E5E5E5" stroke-opacity="0.898039" stroke-width="0.979592"/>
<rect x="864.49" y="384" width="96" height="96" stroke="#E5E5E5" stroke-opacity="0.898039" stroke-width="0.979592"/>
<rect x="960.49" y="384" width="96" height="96" stroke="#E5E5E5" stroke-opacity="0.898039" stroke-width="0.979592"/>
<rect x="1056.49" y="384" width="96" height="96" stroke="#E5E5E5" stroke-opacity="0.898039" stroke-width="0.979592"/>
<rect x="1152.49" y="384" width="96" height="96" stroke="#E5E5E5" stroke-opacity="0.898039" stroke-width="0.979592"/>
<rect x="1248.49" y="384" width="96" height="96" stroke="#E5E5E5" stroke-opacity="0.898039" stroke-width="0.979592"/>
<rect x="1344.49" y="384" width="96" height="96" stroke="#E5E5E5" stroke-opacity="0.898039" stroke-width="0.979592"/>
<rect x="0.489746" y="480" width="96" height="96" stroke="#E5E5E5" stroke-opacity="0.898039" stroke-width="0.979592"/>
<rect x="96.4897" y="480" width="96" height="96" stroke="#E5E5E5" stroke-opacity="0.898039" stroke-width="0.979592"/>
<rect x="192.49" y="480" width="96" height="96" stroke="#E5E5E5" stroke-opacity="0.898039" stroke-width="0.979592"/>
<rect x="288.49" y="480" width="96" height="96" stroke="#E5E5E5" stroke-opacity="0.898039" stroke-width="0.979592"/>
<rect x="384.49" y="480" width="96" height="96" stroke="#E5E5E5" stroke-opacity="0.898039" stroke-width="0.979592"/>
<rect x="480.49" y="480" width="96" height="96" stroke="#E5E5E5" stroke-opacity="0.898039" stroke-width="0.979592"/>
<rect x="576.49" y="480" width="96" height="96" stroke="#E5E5E5" stroke-opacity="0.898039" stroke-width="0.979592"/>
<rect x="672.49" y="480" width="96" height="96" stroke="#E5E5E5" stroke-opacity="0.898039" stroke-width="0.979592"/>
<rect x="768.49" y="480" width="96" height="96" stroke="#E5E5E5" stroke-opacity="0.898039" stroke-width="0.979592"/>
<rect x="864.49" y="480" width="96" height="96" stroke="#E5E5E5" stroke-opacity="0.898039" stroke-width="0.979592"/>
<rect x="960.49" y="480" width="96" height="96" stroke="#E5E5E5" stroke-opacity="0.898039" stroke-width="0.979592"/>
<rect x="1056.49" y="480" width="96" height="96" stroke="#E5E5E5" stroke-opacity="0.898039" stroke-width="0.979592"/>
<rect x="1152.49" y="480" width="96" height="96" stroke="#E5E5E5" stroke-opacity="0.898039" stroke-width="0.979592"/>
<rect x="1248.49" y="480" width="96" height="96" stroke="#E5E5E5" stroke-opacity="0.898039" stroke-width="0.979592"/>
<rect x="1344.49" y="480" width="96" height="96" stroke="#E5E5E5" stroke-opacity="0.898039" stroke-width="0.979592"/>
<rect x="0.489746" y="576" width="96" height="96" stroke="#E5E5E5" stroke-opacity="0.898039" stroke-width="0.979592"/>
<rect x="96.4897" y="576" width="96" height="96" fill="#FAFAFA" fill-opacity="0.898039"/>
<rect x="192.49" y="576" width="96" height="96" stroke="#E5E5E5" stroke-opacity="0.898039" stroke-width="0.979592"/>
<rect x="288.49" y="576" width="96" height="96" stroke="#E5E5E5" stroke-opacity="0.898039" stroke-width="0.979592"/>
<rect x="384.49" y="576" width="96" height="96" stroke="#E5E5E5" stroke-opacity="0.898039" stroke-width="0.979592"/>
<rect x="480.49" y="576" width="96" height="96" stroke="#E5E5E5" stroke-opacity="0.898039" stroke-width="0.979592"/>
<rect x="576.49" y="576" width="96" height="96" stroke="#E5E5E5" stroke-opacity="0.898039" stroke-width="0.979592"/>
<rect x="672.49" y="576" width="96" height="96" fill="#FAFAFA" fill-opacity="0.898039"/>
<rect x="768.49" y="576" width="96" height="96" stroke="#E5E5E5" stroke-opacity="0.898039" stroke-width="0.979592"/>
<rect x="864.49" y="576" width="96" height="96" stroke="#E5E5E5" stroke-opacity="0.898039" stroke-width="0.979592"/>
<rect x="960.49" y="576" width="96" height="96" stroke="#E5E5E5" stroke-opacity="0.898039" stroke-width="0.979592"/>
<rect x="1056.49" y="576" width="96" height="96" stroke="#E5E5E5" stroke-opacity="0.898039" stroke-width="0.979592"/>
<rect x="1152.49" y="576" width="96" height="96" stroke="#E5E5E5" stroke-opacity="0.898039" stroke-width="0.979592"/>
<rect x="1248.49" y="576" width="96" height="96" stroke="#E5E5E5" stroke-opacity="0.898039" stroke-width="0.979592"/>
<rect x="1344.49" y="576" width="96" height="96" stroke="#E5E5E5" stroke-opacity="0.898039" stroke-width="0.979592"/>
<rect x="0.489746" y="672" width="96" height="96" stroke="#E5E5E5" stroke-opacity="0.898039" stroke-width="0.979592"/>
<rect x="96.4897" y="672" width="96" height="96" stroke="#E5E5E5" stroke-opacity="0.898039" stroke-width="0.979592"/>
<rect x="192.49" y="672" width="96" height="96" stroke="#E5E5E5" stroke-opacity="0.898039" stroke-width="0.979592"/>
<rect x="288.49" y="672" width="96" height="96" stroke="#E5E5E5" stroke-opacity="0.898039" stroke-width="0.979592"/>
<rect x="384.49" y="672" width="96" height="96" fill="#FAFAFA" fill-opacity="0.898039"/>
<rect x="480.49" y="672" width="96" height="96" stroke="#E5E5E5" stroke-opacity="0.898039" stroke-width="0.979592"/>
<rect x="576.49" y="672" width="96" height="96" stroke="#E5E5E5" stroke-opacity="0.898039" stroke-width="0.979592"/>
<rect x="672.49" y="672" width="96" height="96" stroke="#E5E5E5" stroke-opacity="0.898039" stroke-width="0.979592"/>
<rect x="768.49" y="672" width="96" height="96" stroke="#E5E5E5" stroke-opacity="0.898039" stroke-width="0.979592"/>
<rect x="864.49" y="672" width="96" height="96" stroke="#E5E5E5" stroke-opacity="0.898039" stroke-width="0.979592"/>
<rect x="960.49" y="672" width="96" height="96" stroke="#E5E5E5" stroke-opacity="0.898039" stroke-width="0.979592"/>
<rect x="1056.49" y="672" width="96" height="96" stroke="#E5E5E5" stroke-opacity="0.898039" stroke-width="0.979592"/>
<rect x="1152.49" y="672" width="96" height="96" stroke="#E5E5E5" stroke-opacity="0.898039" stroke-width="0.979592"/>
<rect x="1248.49" y="672" width="96" height="96" fill="#FAFAFA" fill-opacity="0.898039"/>
<rect x="1344.49" y="672" width="96" height="96" stroke="#E5E5E5" stroke-opacity="0.898039" stroke-width="0.979592"/>
</g>
</g>
<defs>
<linearGradient id="paint0_linear_6133_31675" x1="719.99" y1="0" x2="719.99" y2="767" gradientUnits="userSpaceOnUse">
<stop stop-color="white" stop-opacity="0"/>
<stop offset="0.166667"/>
<stop offset="0.821762"/>
<stop offset="1" stop-color="white" stop-opacity="0"/>
</linearGradient>
</defs>
</svg>
