<svg width="62" height="57" viewBox="0 0 62 57" fill="none" xmlns="http://www.w3.org/2000/svg">
<g style="mix-blend-mode:luminosity" opacity="0.4">
<path d="M50.787 47.2852L53.3187 43.6313L52.4087 43.0014C53.3699 35.8184 47.5217 26.1398 37.4031 19.2843C27.5525 12.6105 16.6393 10.6339 10.1383 13.7445L9.00061 12.957C9.00061 12.957 7.13921 15.7284 6.53862 16.5522C6.48038 16.6252 6.4224 16.6984 6.36634 16.7733C6.3648 16.7747 6.36299 16.7767 6.36171 16.7777L6.36274 16.7783C6.29514 16.8686 6.2283 16.9594 6.16378 17.0526C1.2331 24.1686 7.22529 36.705 19.5476 45.0536C31.8698 53.4019 45.8562 54.4012 50.787 47.2852Z" fill="#12183A"/>
<path d="M33.3487 46.7285L30.6045 50.4995C36.6004 52.413 42.2444 52.5473 46.317 50.815C47.4441 49.1537 48.8778 47.1074 48.8778 47.1074L33.3487 46.7285Z" fill="#181D4C"/>
<path d="M8.98406 13.6091L8.69084 13.418C8.13514 14.242 6.9872 15.9377 6.53964 16.5516C6.4814 16.6246 6.42342 16.6979 6.36736 16.7728C6.36583 16.7742 6.36401 16.7761 6.36273 16.7771L6.36376 16.7778C6.29616 16.8681 6.22933 16.9589 6.1648 17.052C5.5374 17.9574 5.08779 18.951 4.80469 20.0121L8.98406 13.6091Z" fill="#3D51A8"/>
<path d="M12.0431 15.6035L11.3089 15.125L4.65234 25.3228C4.72097 25.7234 4.80603 26.128 4.90711 26.5359L12.0431 15.6035Z" fill="#3D51A8"/>
<path d="M15.1026 17.5976L14.3684 17.1191L6.05273 29.8589C6.18935 30.1707 6.33432 30.4832 6.48736 30.7963L15.1026 17.5976Z" fill="#3D51A8"/>
<path d="M18.1617 19.5898L17.4274 19.1113L8.02051 33.5229C8.18996 33.7895 8.36506 34.0558 8.54567 34.3217L18.1617 19.5898Z" fill="#3D51A8"/>
<path d="M21.2212 21.5839L20.487 21.1055L10.3125 36.6928C10.5038 36.9282 10.7 37.1627 10.8998 37.3964L21.2212 21.5839Z" fill="#3D51A8"/>
<path d="M24.2811 23.5781L23.5469 23.0996L12.8389 39.5043C13.0472 39.7151 13.26 39.9244 13.4751 40.1329L24.2811 23.5781Z" fill="#3D51A8"/>
<path d="M27.3392 25.5703L26.605 25.0918L15.5557 42.0194C15.7789 42.2091 16.004 42.3979 16.2331 42.585L27.3392 25.5703Z" fill="#3D51A8"/>
<path d="M30.3984 27.5644L29.6642 27.0859L18.4414 44.2793C18.6776 44.4494 18.9171 44.6174 19.1582 44.7845L30.3984 27.5644Z" fill="#3D51A8"/>
<path d="M33.4573 29.5586L32.7231 29.0801L21.4854 46.2964C21.7361 46.4489 21.9874 46.5984 22.2391 46.745L33.4573 29.5586Z" fill="#3D51A8"/>
<path d="M36.5152 31.5546L35.7809 31.0762L24.6875 48.0715C24.9517 48.2042 25.2161 48.3339 25.4804 48.4602L36.5152 31.5546Z" fill="#3D51A8"/>
<path d="M39.5749 33.5488L38.8407 33.0703L28.0596 49.5872C28.3387 49.6981 28.6175 49.8063 28.8957 49.9096L39.5749 33.5488Z" fill="#3D51A8"/>
<path d="M42.6341 35.5429L41.8999 35.0645L31.623 50.8087C31.92 50.8941 32.2161 50.9756 32.5107 51.052L42.6341 35.5429Z" fill="#3D51A8"/>
<path d="M45.6935 37.5351L44.9592 37.0566L35.4219 51.6678C35.7422 51.7201 36.0607 51.7677 36.3765 51.8086L45.6935 37.5351Z" fill="#3D51A8"/>
<path d="M48.7521 39.5292L48.0179 39.0508L39.5459 52.03C39.9037 52.0321 40.2567 52.0253 40.6051 52.0107L48.7521 39.5292Z" fill="#3D51A8"/>
<path d="M51.0782 41.0449L44.251 51.5044C44.6983 51.3924 45.1324 51.2628 45.5518 51.1149L51.8125 41.5234L51.0782 41.0449Z" fill="#3D51A8"/>
<path d="M53.3907 43.4994C58.1452 36.4026 51.9749 23.9333 39.6087 15.6485C27.2426 7.36376 13.3635 6.40077 8.60896 13.4976C3.85437 20.5945 10.0247 33.0638 22.3908 41.3486C34.757 49.6333 48.6361 50.5963 53.3907 43.4994Z" fill="#3D51A8"/>
<path d="M48.952 40.6591C52.9089 34.7528 47.7737 24.3755 37.4822 17.4807C27.1907 10.5858 15.6401 9.78436 11.6832 15.6906C7.72628 21.5968 12.8615 31.9742 23.153 38.869C33.4445 45.7639 44.9951 46.5653 48.952 40.6591Z" fill="#667DD3"/>
<path d="M49.6493 40.9892C53.6062 35.0829 48.471 24.7056 38.1795 17.8107C27.888 10.9159 16.3374 10.1144 12.3805 16.0207C8.42354 21.9269 13.5587 32.3042 23.8502 39.1991C34.1417 46.0939 45.6924 46.8954 49.6493 40.9892Z" fill="#6B83DD"/>
<path d="M48.9439 40.672C52.8784 34.7992 47.7723 24.4805 37.539 17.6247C27.3057 10.7688 15.8204 9.97192 11.8859 15.8448C7.95131 21.7176 13.0574 32.0363 23.2907 38.8921C33.524 45.748 45.0093 46.5449 48.9439 40.672Z" fill="#181D4C"/>
<path d="M48.8167 40.5446C52.5905 34.9116 47.3871 24.8096 37.1946 17.9811C27.0021 11.1525 15.6802 10.1833 11.9064 15.8163C8.13253 21.4492 13.3359 31.5512 23.5284 38.3798C33.7209 45.2083 45.0428 46.1775 48.8167 40.5446Z" fill="#181D4C"/>
<path d="M35.8396 27.5291L36.9282 32.5851L31.7441 33.4677L31.7976 33.7223L37.1639 32.8088L37.2409 32.7958L37.2243 32.719L36.0971 27.4824L35.8396 27.5291Z" fill="#7CD8E3"/>
<path d="M24.0263 23.7577L29.1579 22.7965L35.452 27.0137L35.7071 26.9674L29.1943 22.6036L29.2143 22.6928L29.0434 22.644L29.0233 22.5547L23.7148 23.5491L24.0263 23.7577Z" fill="#4BC0D2"/>
<path d="M31.1127 33.2715L24.9699 29.1557L23.8954 24.1488L23.583 23.9395L24.6958 29.1242L24.712 29.2001L24.8068 29.2636L31.1661 33.5245L31.1127 33.2715Z" fill="#12A4C6"/>
<path d="M43.2984 36.8554L41.0256 26.2984L27.9759 17.5547L17.4521 19.526L19.7189 30.0884L32.5493 38.6852L43.2984 36.8554ZM24.8069 29.2637L24.7121 29.2002L24.6958 29.1243L20.2696 29.9123L18.2159 20.3434L23.583 23.9395L23.8953 24.1489L30.0618 28.2806L31.1128 33.2717L31.166 33.5247L32.0868 37.8974L20.3783 30.0522L24.8069 29.2637ZM29.0225 22.5551L29.0425 22.6444L29.2135 22.6934L29.1934 22.6041L28.1972 18.1811L40.1176 26.1682L35.7062 26.9681L35.4511 27.0144L30.2833 27.9515L24.0254 23.7585L23.7139 23.5498L18.3379 19.9477L28.0263 18.1328L29.0225 22.5551ZM37.24 32.7954L37.1631 32.8085L42.5313 36.4054L32.7138 38.0767L31.7969 33.722L31.7433 33.4673L30.6893 28.4625L35.8387 27.5288L36.0962 27.4821L40.5195 26.68L42.5943 36.3171L37.2236 32.7186L37.24 32.7954Z" fill="#7979F5"/>
<path d="M13.7562 16.8225L13.7594 16.8186C13.9989 16.5194 14.2572 16.2349 14.5272 15.973L15.0617 16.3882C14.7996 16.6424 14.5487 16.9187 14.3159 17.2093L14.3142 17.2119L14.3141 17.2117C14.3138 17.212 14.3136 17.2124 14.3133 17.2126L14.2733 17.1841L13.7511 16.8304L13.7562 16.8225ZM13.1802 17.8254L13.7623 18.1739C13.6052 18.5103 13.4738 18.8664 13.3715 19.2325L12.7759 18.9206C12.8815 18.5418 13.0176 18.1734 13.1802 17.8254ZM15.4199 15.2145C15.7408 14.9765 16.0834 14.7569 16.438 14.5618L16.9179 15.017C16.5738 15.2064 16.2413 15.4195 15.9299 15.6503L15.4199 15.2145ZM12.5439 20.1062L13.1473 20.3781C13.1009 20.7719 13.0824 21.183 13.0924 21.5999L12.4871 21.3707C12.4768 20.939 12.4959 20.5136 12.5439 20.1062ZM17.5836 14.0284C17.9884 13.8713 18.4161 13.7363 18.8546 13.6272L19.2555 14.1128C18.8318 14.2181 18.4186 14.3487 18.0271 14.5006L17.5836 14.0284ZM12.6056 22.7014L13.207 22.886C13.273 23.3223 13.3681 23.7724 13.4894 24.2239L12.8978 24.0857C12.7722 23.6185 12.674 23.1527 12.6056 22.7014ZM20.245 13.369C20.7268 13.3078 21.231 13.2716 21.7435 13.2617L22.0421 13.7601C21.5481 13.7697 21.0619 13.8046 20.5973 13.8636L20.245 13.369ZM13.36 25.5095L13.9362 25.6005C14.1114 26.0624 14.3155 26.5341 14.5427 27.0023L13.9874 26.9596C13.7523 26.4752 13.5412 25.9874 13.36 25.5095ZM23.335 13.3092C23.8762 13.3507 24.437 13.4187 25.0021 13.5115L25.1835 14.001C24.6387 13.9116 24.098 13.846 23.5763 13.806L23.335 13.3092ZM14.7737 28.4216L15.3028 28.4159C15.5801 28.8859 15.8851 29.3609 16.2096 29.8278L15.7117 29.8823C15.3761 29.3992 15.0605 28.9078 14.7737 28.4216ZM26.7246 13.8645C27.301 14.0055 27.8926 14.1726 28.483 14.3614L28.5425 14.8213C27.9725 14.639 27.4013 14.4775 26.845 14.3415L26.7246 13.8645ZM16.7929 31.3272L17.2547 31.2244C17.6238 31.6842 18.0187 32.1444 18.4285 32.5922L18.0075 32.7425C17.5835 32.2792 17.1748 31.803 16.7929 31.3272ZM30.2583 14.9936C30.8461 15.2238 31.4432 15.4786 32.0329 15.7509L31.9744 16.1646C31.404 15.9013 30.8264 15.6547 30.2579 15.4321L30.2583 14.9936ZM19.3442 34.1142L19.7202 33.9176C20.1671 34.3492 20.6371 34.7766 21.1171 35.188L20.7897 35.4289C20.293 35.003 19.8068 34.5607 19.3442 34.1142ZM33.7908 16.6235C34.3685 16.9304 34.9492 17.2594 35.5169 17.6013L35.3477 17.9562C34.7979 17.6252 34.2355 17.3065 33.676 17.0092L33.7908 16.6235ZM22.3299 36.6735L22.6058 36.3911C23.1121 36.7769 23.6386 37.1555 24.171 37.5162L24.2109 37.5431L23.9902 37.8651L23.9496 37.8376C23.3982 37.4641 22.8536 37.0726 22.3299 36.6735ZM36.9751 18.9958L37.1974 18.6748L37.2174 18.6884C37.76 19.0561 38.2981 19.4414 38.8178 19.8345L38.5455 20.1196C38.0421 19.7389 37.5207 19.3656 36.9959 19.0099L36.9751 18.9958ZM25.8386 38.578C26.3882 38.9063 26.9511 39.2211 27.5115 39.5137L27.4042 39.9033C26.8242 39.6005 26.242 39.2748 25.6732 38.9353L25.8386 38.578ZM40.044 21.3175L40.3652 21.0714C40.8669 21.4953 41.3581 21.9341 41.825 22.3757L41.4571 22.5801C41.005 22.1524 40.5296 21.7277 40.044 21.3175ZM29.2144 40.3403C29.7828 40.5957 30.3603 40.8343 30.9309 41.0497L30.9425 41.4927C30.3521 41.2698 29.7544 41.0229 29.1662 40.7586L29.2144 40.3403ZM42.7701 23.897L43.1825 23.7374C43.6167 24.2001 44.0339 24.6737 44.4224 25.1451L43.9682 25.2573C43.5929 24.8018 43.1897 24.3441 42.7701 23.897ZM32.6442 41.6351C33.2105 41.8082 33.7803 41.9617 34.3379 42.0913L34.4677 42.5705C33.8908 42.4363 33.3013 42.2777 32.7154 42.0986L32.6442 41.6351ZM45.0368 26.6484L45.5292 26.5859C45.8741 27.0703 46.1967 27.5616 46.4878 28.0464L45.9615 28.0572C45.6806 27.5896 45.3695 27.1155 45.0368 26.6484ZM35.9957 42.4144C36.5386 42.4992 37.079 42.5622 37.6019 42.6015L37.8441 43.0984C37.3033 43.0576 36.7442 42.9924 36.1827 42.9047L35.9957 42.4144ZM46.7295 29.4686L47.2844 29.5105C47.5208 29.9953 47.7307 30.4836 47.9084 30.9615L47.331 30.8672C47.1597 30.4066 46.9574 29.9361 46.7295 29.4686ZM39.141 42.6513C39.6394 42.6449 40.1298 42.6152 40.5984 42.5629L40.9437 43.0583C40.459 43.1124 39.9518 43.1431 39.4361 43.1498L39.141 42.6513ZM47.7594 32.2379L48.3528 32.3829C48.4695 32.8456 48.5581 33.3087 48.6158 33.7595L48.0131 33.5663C47.9575 33.1312 47.872 32.6843 47.7594 32.2379ZM41.9595 42.3368C42.3943 42.2389 42.8154 42.1171 43.2111 41.9747L43.647 42.4497C43.2375 42.5971 42.8018 42.7232 42.3519 42.8244L41.9595 42.3368ZM48.0952 34.8406L48.7007 35.078C48.7001 35.5004 48.6715 35.9213 48.6154 36.3288L48.0126 36.0516C48.0669 35.6569 48.0947 35.2495 48.0952 34.8406ZM44.3403 41.4797C44.6936 41.2936 45.0287 41.0839 45.3364 40.8562L45.8463 41.2922C45.5279 41.5279 45.1812 41.7449 44.8156 41.9375L44.3403 41.4797ZM47.7757 37.1932L48.3713 37.5053C48.2669 37.8777 48.1358 38.2475 47.9817 38.6042L47.3968 38.2618C47.5467 37.9149 47.6742 37.5552 47.7757 37.1932ZM46.19 40.1108C46.4423 39.8507 46.6745 39.5686 46.88 39.2724L46.8888 39.2574L47.4607 39.6253L47.4453 39.6507C47.2322 39.9582 46.9913 40.251 46.7293 40.521L46.19 40.1108Z" fill="#3D51A8"/>
<g opacity="0.24">
<path opacity="0.48" d="M48.8792 47.1091L36.0006 13.4702C32.2725 11.4327 28.4984 10.0453 24.959 9.33008L39.8121 48.1262C43.2476 48.4884 46.3668 48.1568 48.8792 47.1091Z" fill="white"/>
<path opacity="0.48" d="M37.7848 47.8377L22.911 8.98721C21.4911 8.80057 20.1206 8.72938 18.8193 8.77518L33.3502 46.7295C34.8583 47.2118 36.343 47.5817 37.7848 47.8377Z" fill="white"/>
</g>
</g>
</svg>
